<mxfile host="app.diagrams.net" agent="Mozilla/5.0 (Windows NT 10.0; Win64; x64) AppleWebKit/537.36 (KHTML, like Gecko) Chrome/127.0.0.0 Safari/537.36" version="24.7.6">
  <diagram name="Page-1" id="B6rf_046fMDwO7NyP2-5">
    <mxGraphModel dx="1434" dy="772" grid="1" gridSize="10" guides="1" tooltips="1" connect="1" arrows="1" fold="1" page="1" pageScale="1" pageWidth="1169" pageHeight="827" math="0" shadow="0">
      <root>
        <mxCell id="0" />
        <mxCell id="1" parent="0" />
        <mxCell id="v3H9BZiMs6K0rQVqR06I-51" value="" style="rounded=0;whiteSpace=wrap;html=1;fillColor=#dae8fc;strokeColor=#6c8ebf;" vertex="1" parent="1">
          <mxGeometry x="250" y="130" width="490" height="210" as="geometry" />
        </mxCell>
        <mxCell id="v3H9BZiMs6K0rQVqR06I-37" value="" style="rounded=0;whiteSpace=wrap;html=1;fillColor=#ffe6cc;strokeColor=#d79b00;" vertex="1" parent="1">
          <mxGeometry x="180" y="600" width="620" height="200" as="geometry" />
        </mxCell>
        <mxCell id="v3H9BZiMs6K0rQVqR06I-16" value="" style="rounded=0;whiteSpace=wrap;html=1;fillColor=#d5e8d4;strokeColor=#82b366;" vertex="1" parent="1">
          <mxGeometry x="190" y="360" width="600" height="200" as="geometry" />
        </mxCell>
        <mxCell id="v3H9BZiMs6K0rQVqR06I-4" value="Restaurant" style="rounded=0;whiteSpace=wrap;html=1;fillColor=#dae8fc;strokeColor=#6c8ebf;" vertex="1" parent="1">
          <mxGeometry x="400" y="420" width="160" height="80" as="geometry" />
        </mxCell>
        <mxCell id="v3H9BZiMs6K0rQVqR06I-5" value="" style="shape=mxgraph.signs.food.food_truck;html=1;pointerEvents=1;fillColor=#000000;strokeColor=none;verticalLabelPosition=bottom;verticalAlign=top;align=center;" vertex="1" parent="1">
          <mxGeometry x="660" y="435" width="98" height="50" as="geometry" />
        </mxCell>
        <mxCell id="v3H9BZiMs6K0rQVqR06I-6" value="" style="edgeStyle=orthogonalEdgeStyle;html=1;endArrow=block;elbow=vertical;startArrow=none;endFill=1;strokeColor=#006eff;rounded=0;entryX=0;entryY=0.5;entryDx=0;entryDy=0;" edge="1" parent="1">
          <mxGeometry width="100" relative="1" as="geometry">
            <mxPoint x="300" y="450" as="sourcePoint" />
            <mxPoint x="400" y="450" as="targetPoint" />
          </mxGeometry>
        </mxCell>
        <mxCell id="v3H9BZiMs6K0rQVqR06I-7" value="Your order" style="text;html=1;align=center;verticalAlign=middle;resizable=0;points=[];autosize=1;strokeColor=none;fillColor=none;" vertex="1" parent="1">
          <mxGeometry x="310" y="420" width="80" height="30" as="geometry" />
        </mxCell>
        <mxCell id="v3H9BZiMs6K0rQVqR06I-8" value="" style="edgeStyle=orthogonalEdgeStyle;html=1;endArrow=block;elbow=vertical;startArrow=none;endFill=1;strokeColor=#006eff;rounded=0;exitX=1;exitY=0.25;exitDx=0;exitDy=0;entryX=-0.019;entryY=0.309;entryDx=0;entryDy=0;entryPerimeter=0;" edge="1" parent="1" target="v3H9BZiMs6K0rQVqR06I-5">
          <mxGeometry width="100" relative="1" as="geometry">
            <mxPoint x="560" y="450" as="sourcePoint" />
            <mxPoint x="650" y="420" as="targetPoint" />
            <Array as="points">
              <mxPoint x="650" y="450" />
            </Array>
          </mxGeometry>
        </mxCell>
        <mxCell id="v3H9BZiMs6K0rQVqR06I-9" value="" style="edgeStyle=orthogonalEdgeStyle;html=1;endArrow=none;elbow=vertical;startArrow=block;startFill=1;strokeColor=#ff0000;rounded=0;exitX=1.013;exitY=0.645;exitDx=0;exitDy=0;exitPerimeter=0;" edge="1" parent="1" source="v3H9BZiMs6K0rQVqR06I-4">
          <mxGeometry width="100" relative="1" as="geometry">
            <mxPoint x="590" y="490" as="sourcePoint" />
            <mxPoint x="660" y="471" as="targetPoint" />
            <Array as="points">
              <mxPoint x="590" y="472" />
            </Array>
          </mxGeometry>
        </mxCell>
        <mxCell id="v3H9BZiMs6K0rQVqR06I-10" value="Your order" style="text;html=1;align=center;verticalAlign=middle;resizable=0;points=[];autosize=1;strokeColor=none;fillColor=none;" vertex="1" parent="1">
          <mxGeometry x="570" y="420" width="80" height="30" as="geometry" />
        </mxCell>
        <mxCell id="v3H9BZiMs6K0rQVqR06I-11" value="Your Food" style="text;html=1;align=center;verticalAlign=middle;resizable=0;points=[];autosize=1;strokeColor=none;fillColor=none;" vertex="1" parent="1">
          <mxGeometry x="570" y="470" width="80" height="30" as="geometry" />
        </mxCell>
        <mxCell id="v3H9BZiMs6K0rQVqR06I-12" value="" style="edgeStyle=orthogonalEdgeStyle;html=1;endArrow=none;elbow=vertical;startArrow=block;startFill=1;strokeColor=#ff0000;rounded=0;" edge="1" parent="1">
          <mxGeometry width="100" relative="1" as="geometry">
            <mxPoint x="300" y="470.0000000000001" as="sourcePoint" />
            <mxPoint x="400" y="470" as="targetPoint" />
            <Array as="points">
              <mxPoint x="320" y="470" />
              <mxPoint x="320" y="470" />
            </Array>
          </mxGeometry>
        </mxCell>
        <mxCell id="v3H9BZiMs6K0rQVqR06I-13" value="Your Food" style="text;html=1;align=center;verticalAlign=middle;resizable=0;points=[];autosize=1;strokeColor=none;fillColor=none;" vertex="1" parent="1">
          <mxGeometry x="310" y="470" width="80" height="30" as="geometry" />
        </mxCell>
        <mxCell id="v3H9BZiMs6K0rQVqR06I-14" value="The Kitchen" style="text;html=1;align=center;verticalAlign=middle;resizable=0;points=[];autosize=1;strokeColor=none;fillColor=none;" vertex="1" parent="1">
          <mxGeometry x="664" y="490" width="90" height="30" as="geometry" />
        </mxCell>
        <mxCell id="v3H9BZiMs6K0rQVqR06I-15" value="In Real Life" style="text;html=1;align=center;verticalAlign=middle;resizable=0;points=[];autosize=1;strokeColor=none;fillColor=none;" vertex="1" parent="1">
          <mxGeometry x="190" y="360" width="80" height="30" as="geometry" />
        </mxCell>
        <mxCell id="v3H9BZiMs6K0rQVqR06I-22" value="" style="sketch=0;points=[[0,0,0],[0.25,0,0],[0.5,0,0],[0.75,0,0],[1,0,0],[0,1,0],[0.25,1,0],[0.5,1,0],[0.75,1,0],[1,1,0],[0,0.25,0],[0,0.5,0],[0,0.75,0],[1,0.25,0],[1,0.5,0],[1,0.75,0]];outlineConnect=0;fontColor=#232F3E;fillColor=#8C4FFF;strokeColor=#ffffff;dashed=0;verticalLabelPosition=bottom;verticalAlign=top;align=center;html=1;fontSize=12;fontStyle=0;aspect=fixed;shape=mxgraph.aws4.resourceIcon;resIcon=mxgraph.aws4.api_gateway;" vertex="1" parent="1">
          <mxGeometry x="450" y="660" width="60" height="60" as="geometry" />
        </mxCell>
        <mxCell id="v3H9BZiMs6K0rQVqR06I-23" value="" style="sketch=0;points=[[0,0,0],[0.25,0,0],[0.5,0,0],[0.75,0,0],[1,0,0],[0,1,0],[0.25,1,0],[0.5,1,0],[0.75,1,0],[1,1,0],[0,0.25,0],[0,0.5,0],[0,0.75,0],[1,0.25,0],[1,0.5,0],[1,0.75,0]];outlineConnect=0;fontColor=#232F3E;fillColor=#ED7100;strokeColor=#ffffff;dashed=0;verticalLabelPosition=bottom;verticalAlign=top;align=center;html=1;fontSize=12;fontStyle=0;aspect=fixed;shape=mxgraph.aws4.resourceIcon;resIcon=mxgraph.aws4.lambda;" vertex="1" parent="1">
          <mxGeometry x="679" y="660" width="60" height="60" as="geometry" />
        </mxCell>
        <mxCell id="v3H9BZiMs6K0rQVqR06I-24" value="API Gateway" style="text;html=1;align=center;verticalAlign=middle;resizable=0;points=[];autosize=1;strokeColor=none;fillColor=none;" vertex="1" parent="1">
          <mxGeometry x="435" y="730" width="90" height="30" as="geometry" />
        </mxCell>
        <mxCell id="v3H9BZiMs6K0rQVqR06I-25" value="Integration" style="text;html=1;align=center;verticalAlign=middle;resizable=0;points=[];autosize=1;strokeColor=none;fillColor=none;" vertex="1" parent="1">
          <mxGeometry x="669" y="730" width="80" height="30" as="geometry" />
        </mxCell>
        <mxCell id="v3H9BZiMs6K0rQVqR06I-26" value="Users" style="text;html=1;align=center;verticalAlign=middle;resizable=0;points=[];autosize=1;strokeColor=none;fillColor=none;" vertex="1" parent="1">
          <mxGeometry x="245" y="730" width="50" height="30" as="geometry" />
        </mxCell>
        <mxCell id="v3H9BZiMs6K0rQVqR06I-28" value="" style="sketch=0;outlineConnect=0;fontColor=#232F3E;gradientColor=none;fillColor=#232F3D;strokeColor=none;dashed=0;verticalLabelPosition=bottom;verticalAlign=top;align=center;html=1;fontSize=12;fontStyle=0;aspect=fixed;pointerEvents=1;shape=mxgraph.aws4.users;" vertex="1" parent="1">
          <mxGeometry x="240" y="660" width="60" height="60" as="geometry" />
        </mxCell>
        <mxCell id="v3H9BZiMs6K0rQVqR06I-29" value="" style="edgeStyle=orthogonalEdgeStyle;html=1;endArrow=block;elbow=vertical;startArrow=none;endFill=1;strokeColor=#006eff;rounded=0;entryX=0;entryY=0.25;entryDx=0;entryDy=0;entryPerimeter=0;" edge="1" parent="1" source="v3H9BZiMs6K0rQVqR06I-28" target="v3H9BZiMs6K0rQVqR06I-22">
          <mxGeometry width="100" relative="1" as="geometry">
            <mxPoint x="330" y="650" as="sourcePoint" />
            <mxPoint x="430" y="650" as="targetPoint" />
            <Array as="points">
              <mxPoint x="340" y="675" />
              <mxPoint x="340" y="675" />
            </Array>
          </mxGeometry>
        </mxCell>
        <mxCell id="v3H9BZiMs6K0rQVqR06I-30" value="" style="edgeStyle=orthogonalEdgeStyle;html=1;endArrow=block;elbow=vertical;startArrow=none;endFill=1;strokeColor=#006eff;rounded=0;entryX=0;entryY=0.25;entryDx=0;entryDy=0;entryPerimeter=0;exitX=1;exitY=0.25;exitDx=0;exitDy=0;exitPerimeter=0;" edge="1" parent="1" source="v3H9BZiMs6K0rQVqR06I-22" target="v3H9BZiMs6K0rQVqR06I-23">
          <mxGeometry width="100" relative="1" as="geometry">
            <mxPoint x="535" y="640.03" as="sourcePoint" />
            <mxPoint x="685" y="640.03" as="targetPoint" />
            <Array as="points">
              <mxPoint x="570" y="675" />
              <mxPoint x="570" y="675" />
            </Array>
          </mxGeometry>
        </mxCell>
        <mxCell id="v3H9BZiMs6K0rQVqR06I-31" value="" style="edgeStyle=orthogonalEdgeStyle;html=1;endArrow=block;elbow=vertical;startArrow=none;endFill=1;strokeColor=#ff0000;rounded=0;entryX=1;entryY=0.75;entryDx=0;entryDy=0;entryPerimeter=0;exitX=0;exitY=0.75;exitDx=0;exitDy=0;exitPerimeter=0;" edge="1" parent="1" source="v3H9BZiMs6K0rQVqR06I-23" target="v3H9BZiMs6K0rQVqR06I-22">
          <mxGeometry width="100" relative="1" as="geometry">
            <mxPoint x="530" y="820.03" as="sourcePoint" />
            <mxPoint x="699" y="820.03" as="targetPoint" />
            <Array as="points">
              <mxPoint x="600" y="705" />
              <mxPoint x="600" y="705" />
            </Array>
          </mxGeometry>
        </mxCell>
        <mxCell id="v3H9BZiMs6K0rQVqR06I-32" value="" style="edgeStyle=orthogonalEdgeStyle;html=1;endArrow=block;elbow=vertical;startArrow=none;endFill=1;strokeColor=#ff0000;rounded=0;exitX=0;exitY=0.75;exitDx=0;exitDy=0;exitPerimeter=0;" edge="1" parent="1" source="v3H9BZiMs6K0rQVqR06I-22" target="v3H9BZiMs6K0rQVqR06I-28">
          <mxGeometry width="100" relative="1" as="geometry">
            <mxPoint x="510" y="810" as="sourcePoint" />
            <mxPoint x="341" y="810" as="targetPoint" />
            <Array as="points">
              <mxPoint x="370" y="705" />
              <mxPoint x="370" y="705" />
            </Array>
          </mxGeometry>
        </mxCell>
        <mxCell id="v3H9BZiMs6K0rQVqR06I-33" value="Request" style="text;html=1;align=center;verticalAlign=middle;resizable=0;points=[];autosize=1;strokeColor=none;fillColor=none;" vertex="1" parent="1">
          <mxGeometry x="335" y="650" width="70" height="30" as="geometry" />
        </mxCell>
        <mxCell id="v3H9BZiMs6K0rQVqR06I-34" value="Request" style="text;html=1;align=center;verticalAlign=middle;resizable=0;points=[];autosize=1;strokeColor=none;fillColor=none;" vertex="1" parent="1">
          <mxGeometry x="559" y="650" width="70" height="30" as="geometry" />
        </mxCell>
        <mxCell id="v3H9BZiMs6K0rQVqR06I-35" value="Request Result" style="text;html=1;align=center;verticalAlign=middle;resizable=0;points=[];autosize=1;strokeColor=none;fillColor=none;" vertex="1" parent="1">
          <mxGeometry x="539" y="700" width="110" height="30" as="geometry" />
        </mxCell>
        <mxCell id="v3H9BZiMs6K0rQVqR06I-36" value="Request Result" style="text;html=1;align=center;verticalAlign=middle;resizable=0;points=[];autosize=1;strokeColor=none;fillColor=none;" vertex="1" parent="1">
          <mxGeometry x="320" y="700" width="110" height="30" as="geometry" />
        </mxCell>
        <mxCell id="v3H9BZiMs6K0rQVqR06I-38" value="Common API Setup on AWS" style="text;html=1;align=center;verticalAlign=middle;resizable=0;points=[];autosize=1;strokeColor=none;fillColor=none;" vertex="1" parent="1">
          <mxGeometry x="180" y="600" width="180" height="30" as="geometry" />
        </mxCell>
        <mxCell id="v3H9BZiMs6K0rQVqR06I-40" value="" style="fontColor=#0066CC;verticalAlign=top;verticalLabelPosition=bottom;labelPosition=center;align=center;html=1;outlineConnect=0;fillColor=#CCCCCC;strokeColor=#6881B3;gradientColor=none;gradientDirection=north;strokeWidth=2;shape=mxgraph.networks.server;" vertex="1" parent="1">
          <mxGeometry x="580" y="200" width="60" height="60" as="geometry" />
        </mxCell>
        <mxCell id="v3H9BZiMs6K0rQVqR06I-41" value="" style="sketch=0;outlineConnect=0;fontColor=#232F3E;gradientColor=none;fillColor=#232F3D;strokeColor=none;dashed=0;verticalLabelPosition=bottom;verticalAlign=top;align=center;html=1;fontSize=12;fontStyle=0;aspect=fixed;pointerEvents=1;shape=mxgraph.aws4.users;" vertex="1" parent="1">
          <mxGeometry x="340" y="200" width="60" height="60" as="geometry" />
        </mxCell>
        <mxCell id="v3H9BZiMs6K0rQVqR06I-43" value="Users" style="text;html=1;align=center;verticalAlign=middle;resizable=0;points=[];autosize=1;strokeColor=none;fillColor=none;" vertex="1" parent="1">
          <mxGeometry x="345" y="260" width="50" height="30" as="geometry" />
        </mxCell>
        <mxCell id="v3H9BZiMs6K0rQVqR06I-44" value="" style="sketch=0;outlineConnect=0;fontColor=#232F3E;gradientColor=none;fillColor=#232F3D;strokeColor=none;dashed=0;verticalLabelPosition=bottom;verticalAlign=top;align=center;html=1;fontSize=12;fontStyle=0;aspect=fixed;pointerEvents=1;shape=mxgraph.aws4.users;" vertex="1" parent="1">
          <mxGeometry x="235" y="430" width="60" height="60" as="geometry" />
        </mxCell>
        <mxCell id="v3H9BZiMs6K0rQVqR06I-45" value="Customer" style="text;html=1;align=center;verticalAlign=middle;resizable=0;points=[];autosize=1;strokeColor=none;fillColor=none;" vertex="1" parent="1">
          <mxGeometry x="225" y="490" width="80" height="30" as="geometry" />
        </mxCell>
        <mxCell id="v3H9BZiMs6K0rQVqR06I-46" value="Server" style="text;html=1;align=center;verticalAlign=middle;resizable=0;points=[];autosize=1;strokeColor=none;fillColor=none;" vertex="1" parent="1">
          <mxGeometry x="580" y="260" width="60" height="30" as="geometry" />
        </mxCell>
        <mxCell id="v3H9BZiMs6K0rQVqR06I-47" value="" style="edgeStyle=orthogonalEdgeStyle;html=1;endArrow=block;elbow=vertical;startArrow=none;endFill=1;strokeColor=#006eff;rounded=0;" edge="1" parent="1" target="v3H9BZiMs6K0rQVqR06I-40">
          <mxGeometry width="100" relative="1" as="geometry">
            <mxPoint x="400" y="220" as="sourcePoint" />
            <mxPoint x="555" y="225" as="targetPoint" />
            <Array as="points">
              <mxPoint x="540" y="220" />
              <mxPoint x="540" y="220" />
            </Array>
          </mxGeometry>
        </mxCell>
        <mxCell id="v3H9BZiMs6K0rQVqR06I-48" value="GET /api/user/karl" style="text;html=1;align=center;verticalAlign=middle;resizable=0;points=[];autosize=1;strokeColor=none;fillColor=none;" vertex="1" parent="1">
          <mxGeometry x="430" y="190" width="120" height="30" as="geometry" />
        </mxCell>
        <mxCell id="v3H9BZiMs6K0rQVqR06I-49" value="" style="edgeStyle=orthogonalEdgeStyle;html=1;endArrow=block;elbow=vertical;startArrow=none;endFill=1;strokeColor=#ff0000;rounded=0;entryX=1;entryY=0.75;entryDx=0;entryDy=0;entryPerimeter=0;" edge="1" parent="1" source="v3H9BZiMs6K0rQVqR06I-40">
          <mxGeometry width="100" relative="1" as="geometry">
            <mxPoint x="570" y="240" as="sourcePoint" />
            <mxPoint x="401" y="240" as="targetPoint" />
            <Array as="points">
              <mxPoint x="530" y="240" />
              <mxPoint x="530" y="240" />
            </Array>
          </mxGeometry>
        </mxCell>
        <mxCell id="v3H9BZiMs6K0rQVqR06I-50" value="user info" style="text;html=1;align=center;verticalAlign=middle;resizable=0;points=[];autosize=1;strokeColor=none;fillColor=none;" vertex="1" parent="1">
          <mxGeometry x="455" y="240" width="70" height="30" as="geometry" />
        </mxCell>
        <mxCell id="v3H9BZiMs6K0rQVqR06I-52" value="Typical API Setup" style="text;html=1;align=center;verticalAlign=middle;resizable=0;points=[];autosize=1;strokeColor=none;fillColor=none;" vertex="1" parent="1">
          <mxGeometry x="250" y="130" width="120" height="30" as="geometry" />
        </mxCell>
      </root>
    </mxGraphModel>
  </diagram>
</mxfile>
